HIERARCHY
ROOT Hips
{
	OFFSET 0.000000 0.000000 0.000000
	CHANNELS 6 Xposition Yposition Zposition Xrotation Yrotation Zrotation
	JOINT LeftUpLeg_virtual
	{
		OFFSET 0.000000 0.000000 0.000000
		CHANNELS 3 Xrotation Yrotation Zrotation
		JOINT LeftUpLeg
		{
			OFFSET 13.026900 -6.336304 -1.092800
			CHANNELS 3 Xrotation Yrotation Zrotation
			JOINT LeftLeg
			{
				OFFSET 0.524474 -46.096886 9.782700
				CHANNELS 3 Xrotation Yrotation Zrotation
				JOINT LeftFoot
				{
					OFFSET -0.524474 -53.427422 -12.948200
					CHANNELS 3 Xrotation Yrotation Zrotation
					JOINT LeftToeBase
					{
						OFFSET 0.192200 -14.009700 16.364100
						CHANNELS 3 Xrotation Yrotation Zrotation
						JOINT LeftToe_End
						{
							OFFSET -1.784700 -0.561700 9.474800
							CHANNELS 3 Xrotation Yrotation Zrotation
							End Site
							{
								OFFSET 0 0 0
							}
						}
					}
				}
			}
		}
	}
	JOINT RightUpLeg_virtual
	{
		OFFSET 0.000000 0.000000 0.000000
		CHANNELS 3 Xrotation Yrotation Zrotation
		JOINT RightUpLeg
		{
			OFFSET -12.883000 -6.336304 -1.092800
			CHANNELS 3 Xrotation Yrotation Zrotation
			JOINT RightLeg
			{
				OFFSET -0.524587 -46.096825 9.782800
				CHANNELS 3 Xrotation Yrotation Zrotation
				JOINT RightFoot
				{
					OFFSET 0.524587 -53.427383 -12.948300
					CHANNELS 3 Xrotation Yrotation Zrotation
					JOINT RightToeBase
					{
						OFFSET -0.192200 -14.009700 16.364100
						CHANNELS 3 Xrotation Yrotation Zrotation
						JOINT RightToe_End
						{
							OFFSET 1.784700 -0.561700 9.474800
							CHANNELS 3 Xrotation Yrotation Zrotation
							End Site
							{
								OFFSET 0 0 0
							}
						}
					}
				}
			}
		}
	}
	JOINT Spine_virtual
	{
		OFFSET 0.000000 0.000000 0.000000
		CHANNELS 3 Xrotation Yrotation Zrotation
		JOINT Spine
		{
			OFFSET 0.072000 7.257294 -0.789700
			CHANNELS 3 Xrotation Yrotation Zrotation
			JOINT Spine1
			{
				OFFSET 0.000000 12.508769 -0.658067
				CHANNELS 3 Xrotation Yrotation Zrotation
				JOINT Spine1_split
				{
					OFFSET 0.000000 12.508769 -0.658067
					CHANNELS 3 Xrotation Yrotation Zrotation
					JOINT Spine2
					{
						OFFSET 0.000000 12.508769 -0.658067
						CHANNELS 3 Xrotation Yrotation Zrotation
						JOINT Neck_virtual
						{
							OFFSET 0.000000 0.000000 0.000000
							CHANNELS 3 Xrotation Yrotation Zrotation
							JOINT Neck
							{
								OFFSET 0.000000 14.033295 7.520400
								CHANNELS 3 Xrotation Yrotation Zrotation
								JOINT Head
								{
									OFFSET 0.000000 8.198502 5.703100
									CHANNELS 3 Xrotation Yrotation Zrotation
									JOINT HeadTop_End
									{
										OFFSET 0.000000 17.760803 13.332701
										CHANNELS 3 Xrotation Yrotation Zrotation
										End Site
										{
											OFFSET 0 0 0
										}
									}
								}
							}
						}
						JOINT LeftShoulder_virtual
						{
							OFFSET 0.000000 0.000000 0.000000
							CHANNELS 3 Xrotation Yrotation Zrotation
							JOINT LeftShoulder
							{
								OFFSET 6.292450 5.785301 -0.669000
								CHANNELS 3 Xrotation Yrotation Zrotation
								JOINT LeftShoulder_split
								{
									OFFSET 6.292450 5.785301 -0.669000
									CHANNELS 3 Xrotation Yrotation Zrotation
									JOINT LeftArm
									{
										OFFSET 13.907140 -6.093903 1.965100
										CHANNELS 3 Xrotation Yrotation Zrotation
										JOINT LeftForeArm
										{
											OFFSET 34.140198 0.000000 0.000000
											CHANNELS 3 Xrotation Yrotation Zrotation
											JOINT LeftHand
											{
												OFFSET 40.960209 0.000000 0.000000
												CHANNELS 3 Xrotation Yrotation Zrotation
												End Site
												{
													OFFSET 0 0 0
												}
											}
										}
									}
								}
							}
						}
						JOINT RightShoulder_virtual
						{
							OFFSET 0.000000 0.000000 0.000000
							CHANNELS 3 Xrotation Yrotation Zrotation
							JOINT RightShoulder
							{
								OFFSET -6.292450 5.785301 -0.669000
								CHANNELS 3 Xrotation Yrotation Zrotation
								JOINT RightShoulder_split
								{
									OFFSET -6.292450 5.785301 -0.669000
									CHANNELS 3 Xrotation Yrotation Zrotation
									JOINT RightArm
									{
										OFFSET -13.907140 -6.093903 1.965100
										CHANNELS 3 Xrotation Yrotation Zrotation
										JOINT RightForeArm
										{
											OFFSET -34.140198 0.000000 0.000000
											CHANNELS 3 Xrotation Yrotation Zrotation
											JOINT RightHand
											{
												OFFSET -40.960209 0.000000 0.000000
												CHANNELS 3 Xrotation Yrotation Zrotation
												End Site
												{
													OFFSET 0 0 0
												}
											}
										}
									}
								}
							}
						}
					}
				}
			}
		}
	}
}
MOTION
Frames: 4
Frame Time: 0.03333333
2.287311 86.713356 -71.115646 0.000000 0.000000 0.000000 19.766899 -59.804679 15.545434 -40.988372 -2.067069 25.761727 65.389636 -2.897816 2.694940 -14.879699 14.695442 -25.489810 -3.983213 -4.054202 -1.151654 0.000000 0.000000 0.000000 20.844358 -59.855939 16.987854 -53.371587 -0.366719 -11.450415 72.846256 11.441655 -7.208369 -26.643658 -3.441801 19.535070 4.116868 3.834733 -22.646566 0.000000 0.000000 0.000000 20.306590 -58.280003 15.217571 3.111425 13.959946 -0.722367 10.696790 14.326452 -7.077366 0.363940 -1.043144 0.134247 0.000000 0.000000 0.000000 13.253174 15.734247 -6.941653 -8.340522 7.856836 17.277867 -40.903841 -37.319119 -18.991667 0.000000 0.000000 0.000000 8.818945 14.079210 -6.885161 8.028162 -11.443463 5.881790 1.908282 3.058864 -1.472672 -94.151009 -34.646657 -62.082629 3.418048 -64.978124 -2.922903 0.000000 0.000000 0.000000 9.769300 14.250649 -5.699842 7.963563 -3.651146 -6.762376 -9.186070 3.866457 -0.826354 -51.040767 0.608397 20.003228 -25.360518 38.154663 19.962211 0.000000 0.000000 0.000000 
3.473541 84.563583 -71.464005 0.000000 0.000000 0.000000 23.833332 -58.038610 19.721181 -47.983066 -2.397543 26.248231 66.758645 -4.150918 2.733383 -14.089325 14.306271 -25.762034 -2.035193 -3.999413 -1.452020 0.000000 0.000000 0.000000 23.472509 -58.314010 20.180610 -57.274988 1.841692 -11.577545 75.995492 10.590072 -6.796827 -27.188333 -4.495627 20.053553 4.681217 3.611719 -21.548779 0.000000 0.000000 0.000000 23.619689 -56.270035 18.848441 5.174652 13.305450 -1.031300 11.005000 13.786801 -6.977370 0.360263 -1.166170 0.097725 0.000000 0.000000 0.000000 13.170275 15.216202 -6.531717 -9.873106 6.786218 17.863279 -42.053649 -27.306750 -19.077227 0.000000 0.000000 0.000000 8.870619 13.567717 -6.949180 7.069705 -11.980832 3.976798 0.708314 3.625814 -2.027449 -77.435992 -25.645171 -54.272325 5.385655 -64.881715 -1.634881 0.000000 0.000000 0.000000 9.929738 13.905510 -5.494264 7.314238 -5.232465 -3.173107 -10.367594 4.742447 -1.265442 -42.513949 -3.147343 20.769613 -21.896483 36.110971 20.506321 0.000000 0.000000 0.000000 
4.309336 83.398407 -71.208969 0.000000 0.000000 0.000000 27.518752 -56.464597 23.757829 -54.010937 -1.851510 26.473977 66.697535 -5.178058 2.596732 -12.311057 13.416420 -24.681413 -1.447309 -4.029120 -1.885702 0.000000 0.000000 0.000000 25.771127 -57.052840 23.337063 -60.755263 4.539726 -12.003309 77.995501 10.134607 -6.484192 -26.586737 -5.210316 21.834344 4.786747 3.481943 -19.648641 0.000000 0.000000 0.000000 26.355412 -54.137329 22.035971 6.783440 12.508315 -1.073420 11.228219 13.124162 -6.815695 0.321368 -1.231770 0.048494 0.000000 0.000000 0.000000 13.025122 14.530059 -6.040382 -11.593816 5.722869 18.108462 -41.920102 -16.663341 -18.869038 0.000000 0.000000 0.000000 8.800572 13.012449 -7.016452 6.226880 -11.866749 2.536724 0.127046 3.796124 -1.912697 -60.934180 -14.759048 -50.213700 6.380219 -62.406291 -0.659159 0.000000 0.000000 0.000000 10.081505 13.436070 -5.309945 6.786131 -6.063188 0.051610 -10.721231 5.860827 -1.537028 -33.048926 -9.185407 23.492622 -18.582525 34.921272 20.831343 0.000000 0.000000 0.000000 
4.878591 82.951035 -70.826202 0.000000 0.000000 0.000000 29.908572 -55.052042 26.737132 -58.604683 -0.550520 26.647823 65.790875 -6.218840 2.358936 -10.051306 12.096203 -22.806681 -1.901315 -4.071218 -2.472634 0.000000 0.000000 0.000000 27.554192 -55.946585 26.012330 -62.973764 7.082282 -12.541904 78.971726 10.210087 -6.512210 -25.939826 -5.560049 24.839219 4.043393 3.585595 -17.448270 0.000000 0.000000 0.000000 27.871955 -52.309745 24.253928 7.800015 11.751087 -0.736706 11.413205 12.456984 -6.721249 0.270005 -1.242812 0.064187 0.000000 0.000000 0.000000 12.854985 13.779677 -5.666837 -13.461385 4.717178 17.918054 -40.573291 -6.478192 -18.396732 0.000000 0.000000 0.000000 8.773702 12.438338 -7.194282 5.506131 -11.314638 1.478620 0.041971 3.561927 -1.394635 -45.292941 -4.318402 -50.894116 6.929712 -58.761210 0.133800 0.000000 0.000000 0.000000 10.353135 12.932856 -5.253019 6.365377 -5.795265 3.091973 -11.046890 6.790402 -1.517264 -22.578505 -16.275340 28.755298 -15.376938 33.882851 20.577803 0.000000 0.000000 0.000000 
